<svg xmlns="http://www.w3.org/2000/svg" viewBox="545 315 832 450" fill="currentColor" role="img" aria-label="lits"><path d="M 1364.835938 417.464844 C 1362.867188 421.265625 1359.53125 427.636719 1357.464844 431.542969 C 1356.628906 433.140625 1355.027344 434.277344 1353.226562 434.511719 C 1315.269531 439.578125 1123.464844 460.226562 1121.53125 460.429688 L 1120.664062 460.527344 L 1120.230469 461.296875 C 1119.363281 462.898438 1033.335938 621.507812 1024.195312 637.953125 C 1022.128906 641.722656 1014.355469 656.097656 1013.921875 656.933594 C 1012.789062 659.101562 1011.988281 661.003906 1012.789062 663.90625 C 1013.753906 667.308594 1016.558594 670.808594 1020.191406 670.644531 C 1021.359375 670.609375 1022.628906 670.308594 1023.828125 669.808594 C 1024.894531 669.375 1025.730469 668.707031 1026.464844 668.109375 L 1069.859375 629.882812 L 1070.226562 629.546875 C 1076.097656 623.976562 1081.902344 618.339844 1087.671875 612.636719 C 1096.980469 603.460938 1106.320312 594.054688 1115.394531 584.648438 C 1123.367188 576.410156 1150.085938 548.023438 1150.382812 547.722656 C 1157.421875 540.117188 1164.160156 532.246094 1171 524.171875 L 1171.300781 523.839844 C 1183.007812 510.097656 1195.117188 495.851562 1208.925781 483.679688 C 1213.394531 479.773438 1224.703125 479.742188 1237.746094 483.679688 C 1252.890625 488.179688 1261.761719 494.984375 1262.464844 497.554688 C 1263.429688 501.15625 1257.328125 508.695312 1251.890625 515.398438 C 1242.082031 527.574219 1229.839844 542.6875 1233.511719 560.367188 C 1237.8125 581.113281 1250.890625 598.691406 1262.464844 614.238281 C 1276.839844 633.484375 1280.675781 664.707031 1262.195312 683.6875 C 1255.324219 690.722656 1246.253906 696.261719 1232.808594 701.664062 C 1220.234375 706.667969 1206.722656 711.839844 1192.914062 715.839844 C 1172.234375 721.746094 1152.453125 726.28125 1134.171875 729.285156 L 1133.574219 729.351562 C 1133.207031 729.417969 1132.839844 729.453125 1132.4375 729.484375 C 1124.300781 730.152344 1117.5625 721.546875 1112.457031 714.972656 C 1107.65625 708.835938 1102.417969 701.5 1099.78125 693.859375 C 1099.515625 693.027344 1099.183594 691.492188 1100.28125 690.691406 C 1100.917969 690.191406 1101.882812 689.921875 1102.984375 689.625 C 1106.121094 688.824219 1111.992188 687.355469 1119.097656 685.621094 C 1138.410156 680.882812 1167.5625 673.710938 1176.738281 670.578125 C 1185.777344 667.472656 1204.523438 661.035156 1202.988281 642.824219 C 1202.722656 639.554688 1201.652344 636.183594 1199.851562 632.851562 L 1168.097656 565.234375 L 1166.394531 566.902344 C 1165.0625 568.238281 1160.191406 573.308594 1157.421875 576.210938 L 1155.589844 578.109375 C 1152.453125 581.347656 1075.53125 656 1073.261719 658 C 1055.417969 673.945312 1014.921875 706.902344 1012.988281 708.402344 C 1009.984375 710.703125 1006.882812 713.207031 1003.746094 715.742188 C 989.769531 727.117188 975.292969 738.859375 959.882812 738.492188 C 955.980469 738.390625 952.210938 737.789062 948.609375 736.757812 C 944.140625 735.421875 932.628906 728.449219 927.125 725.082031 C 925.492188 724.113281 924.292969 723.378906 923.722656 723.082031 C 917.1875 719.476562 912.917969 713.808594 912.050781 707.570312 C 911.847656 706.203125 911.816406 704.832031 911.882812 703.734375 C 912.816406 700.296875 914.417969 696.726562 915.917969 693.292969 C 916.386719 692.257812 916.820312 691.257812 917.253906 690.257812 L 918.753906 686.453125 L 876.457031 705.101562 L 808.644531 734.6875 C 804.574219 736.488281 800.804688 737.589844 797.203125 738.125 C 785.226562 739.792969 776.488281 735.320312 764.445312 728.21875 L 763.613281 729.683594 L 764.144531 728.050781 C 760.777344 726.050781 756.90625 723.582031 753.769531 720.410156 C 745.597656 712.171875 749.703125 702.898438 754.070312 693.09375 C 754.605469 691.859375 755.171875 690.65625 755.671875 689.421875 L 757.308594 685.585938 L 604.464844 752.234375 C 596.09375 754.203125 588.953125 752.933594 582.582031 748.398438 L 555.964844 729.484375 C 555.03125 728.683594 554.765625 722.945312 556.097656 720.378906 L 563.570312 705.703125 L 750.433594 382.273438 L 750.402344 382.273438 C 751.371094 380.605469 754.339844 374.066406 751.667969 369.898438 C 749.566406 366.628906 744.53125 364.726562 743.496094 364.359375 L 716.078125 355.488281 C 715.675781 355.21875 714.742188 354.085938 714.34375 353.453125 C 714.644531 352.683594 715.476562 351.21875 715.878906 350.683594 L 830.457031 327.902344 C 833.929688 327.199219 837.429688 326.867188 840.867188 326.867188 C 853.074219 326.867188 861.480469 330.9375 864.148438 334.738281 C 865.351562 336.472656 864.984375 337.40625 864.484375 338.207031 L 817.582031 416.128906 L 700.867188 613.636719 L 667.011719 673.980469 C 664.808594 677.882812 664.875 682.617188 667.144531 686.1875 L 667.445312 686.65625 C 671.28125 692.089844 677.984375 696.496094 684.320312 694.160156 L 771.117188 656.566406 L 828.390625 550.890625 C 830.292969 547.789062 833.5625 547.355469 839.230469 546.890625 L 849.273438 545.957031 C 864.949219 544.488281 896.273438 541.550781 908.679688 540.351562 C 910.015625 540.25 911.214844 540.785156 911.917969 541.851562 C 912.617188 542.886719 912.648438 544.1875 912.015625 545.355469 L 846.738281 667.609375 C 844.636719 671.34375 844.703125 675.179688 846.9375 678.75 L 846.9375 678.914062 L 847.371094 679.417969 C 851.207031 684.820312 857.910156 689.222656 864.25 686.921875 L 929.363281 658.566406 L 932.363281 657.265625 L 932.664062 656.765625 C 939.203125 644.792969 965.152344 597.890625 988.070312 556.527344 L 1004.515625 526.875 C 1016.15625 505.925781 1024.597656 490.75 1025.328125 489.382812 C 1027.898438 484.546875 1028.097656 480.507812 1025.898438 476.972656 C 1023.5625 473.269531 1019.457031 471.203125 1015.054688 471.601562 C 1011.054688 471.96875 987.96875 473.835938 980.398438 474.472656 C 979.832031 474.503906 979.464844 474.105469 979.363281 473.9375 C 979.265625 473.769531 979.03125 473.335938 979.332031 472.835938 L 980.464844 470.769531 C 982.53125 467.03125 985.402344 461.796875 987.503906 457.960938 C 989.003906 455.222656 991.738281 453.421875 994.839844 453.089844 C 1010.386719 451.554688 1051.714844 447.519531 1051.714844 447.519531 L 1052.582031 447.453125 L 1057.753906 438.011719 L 1062.355469 430.941406 C 1068.925781 420.867188 1075.730469 410.460938 1082.601562 400.320312 C 1085.238281 396.382812 1090.007812 389.410156 1093.3125 384.609375 C 1095.277344 381.773438 1098.382812 380.039062 1101.816406 379.839844 L 1159.222656 376.300781 C 1160.757812 376.203125 1162.027344 376.902344 1162.761719 378.171875 C 1163.527344 379.4375 1163.527344 380.972656 1162.726562 382.273438 L 1138.875 420.699219 C 1136.640625 424.371094 1136.574219 428.972656 1138.777344 432.675781 C 1141.011719 436.410156 1144.746094 438.347656 1149.015625 437.945312 C 1151.71875 437.679688 1173 435.609375 1201.320312 432.84375 C 1259.0625 427.238281 1346.289062 418.730469 1364.570312 417.097656 Z M 1364.835938 417.464844 "/><path d="M 858.078125 521.539062 L 924.824219 515.265625 C 927.394531 515.035156 929.660156 513.53125 930.863281 511.265625 L 953.480469 468.765625 C 956.382812 463.332031 952.011719 456.890625 945.875 457.558594 L 878.824219 465 C 876.324219 465.265625 874.121094 466.765625 872.957031 468.96875 L 850.640625 510.332031 C 847.738281 515.699219 852.007812 522.136719 858.078125 521.570312 Z M 858.078125 521.539062 "/></svg>